<svg clip-rule="evenodd" fill-rule="evenodd" stroke-linejoin="round" stroke-miterlimit="2" viewBox="0 0 267 267" xmlns="http://www.w3.org/2000/svg"><g transform="matrix(4.167 0 0 4.167 -2666.67 -1666.67)"><path d="m666.142 403.427c1.553-1.554 3.661-2.427 5.858-2.427s4.305.873 5.858 2.427c6.229 6.228 17.487 17.486 23.715 23.715 1.554 1.553 2.427 3.661 2.427 5.858s-.873 4.305-2.427 5.858c-6.228 6.229-17.486 17.487-23.715 23.715-1.553 1.554-3.661 2.427-5.858 2.427s-4.305-.873-5.858-2.427c-6.229-6.228-17.487-17.486-23.715-23.715-1.554-1.553-2.427-3.661-2.427-5.858s.873-4.305 2.427-5.858z" fill="#ffde17"/><path d="m667.071 405.542c1.307-1.308 3.08-2.042 4.929-2.042s3.622.734 4.929 2.042c5.917 5.916 16.613 16.612 22.529 22.529 1.308 1.307 2.042 3.08 2.042 4.929s-.734 3.622-2.042 4.929c-5.916 5.917-16.612 16.613-22.529 22.529-1.307 1.308-3.08 2.042-4.929 2.042s-3.622-.734-4.929-2.042c-5.917-5.916-16.613-16.612-22.529-22.529-1.308-1.307-2.042-3.08-2.042-4.929s.734-3.622 2.042-4.929zm1.414 1.414-22.529 22.529c-.932.932-1.456 2.197-1.456 3.515s.524 2.583 1.456 3.515c5.917 5.917 16.612 16.612 22.529 22.529.932.932 2.197 1.456 3.515 1.456s2.583-.524 3.515-1.456c5.917-5.917 16.612-16.612 22.529-22.529.932-.932 1.456-2.197 1.456-3.515s-.524-2.583-1.456-3.515c-5.917-5.917-16.612-16.612-22.529-22.529-.932-.932-2.197-1.456-3.515-1.456s-2.583.524-3.515 1.456zm-5.948 28.044h-8.537v6h36v-6h-8.537c-.318-.982-.908-1.891-1.72-2.677-1.749-1.695-4.561-2.823-7.743-2.823s-5.994 1.128-7.743 2.823c-.812.786-1.402 1.695-1.72 2.677z"/></g></svg>