<?xml version="1.0" encoding="UTF-8"?>
<svg xmlns="http://www.w3.org/2000/svg" xmlns:xlink="http://www.w3.org/1999/xlink" width="5000" height="5000" viewBox="0 0 5000 5000">
<path fill-rule="evenodd" fill="rgb(0%, 0%, 0%)" fill-opacity="1" d="M 3189.460938 997.519531 C 3189.460938 936.980469 3165.421875 878.921875 3122.609375 836.121094 C 3079.800781 793.308594 3021.738281 769.261719 2961.210938 769.261719 C 2705.738281 769.261719 2294.261719 769.261719 2038.789062 769.261719 C 1978.261719 769.261719 1920.199219 793.308594 1877.390625 836.121094 C 1834.578125 878.921875 1810.539062 936.980469 1810.539062 997.519531 C 1810.539062 1625.601562 1810.539062 3374.398438 1810.539062 4002.480469 C 1810.539062 4063.019531 1834.578125 4121.078125 1877.390625 4163.886719 C 1920.199219 4206.691406 1978.261719 4230.738281 2038.789062 4230.738281 C 2294.261719 4230.738281 2705.738281 4230.738281 2961.210938 4230.738281 C 3021.738281 4230.738281 3079.800781 4206.691406 3122.609375 4163.886719 C 3165.421875 4121.078125 3189.460938 4063.019531 3189.460938 4002.480469 C 3189.460938 3374.398438 3189.460938 1625.601562 3189.460938 997.519531 "/>
<path fill-rule="evenodd" fill="rgb(97.65625%, 21.99707%, 13.305664%)" fill-opacity="1" d="M 2500 984.941406 C 2748.359375 984.941406 2950 1186.578125 2950 1434.941406 C 2950 1683.300781 2748.359375 1884.941406 2500 1884.941406 C 2251.640625 1884.941406 2050 1683.300781 2050 1434.941406 C 2050 1186.578125 2251.640625 984.941406 2500 984.941406 "/>
<path fill-rule="evenodd" fill="rgb(94.921875%, 80.46875%, 0%)" fill-opacity="1" d="M 2500 2050 C 2748.359375 2050 2950 2251.640625 2950 2500 C 2950 2748.359375 2748.359375 2950 2500 2950 C 2251.640625 2950 2050 2748.359375 2050 2500 C 2050 2251.640625 2251.640625 2050 2500 2050 "/>
<path fill-rule="evenodd" fill="rgb(0%, 52.146912%, 13.305664%)" fill-opacity="1" d="M 2500 3131.480469 C 2748.359375 3131.480469 2950 3333.121094 2950 3581.480469 C 2950 3829.851562 2748.359375 4031.484375 2500 4031.484375 C 2251.640625 4031.484375 2050 3829.851562 2050 3581.480469 C 2050 3333.121094 2251.640625 3131.480469 2500 3131.480469 "/>
</svg>
