<?xml version="1.0" encoding="UTF-8" standalone="no"?>
<!-- Created with Inkscape (http://www.inkscape.org/) -->

<svg
   version="1.1"
   id="svg1020"
   xml:space="preserve"
   width="682.66669"
   height="682.66669"
   viewBox="0 0 682.66669 682.66669"
   xmlns="http://www.w3.org/2000/svg"
   xmlns:svg="http://www.w3.org/2000/svg"><defs
     id="defs1024"><clipPath
       clipPathUnits="userSpaceOnUse"
       id="clipPath1034"><path
         d="M 0,512 H 512 V 0 H 0 Z"
         id="path1032" /></clipPath></defs><g
     id="g1026"
     transform="matrix(1.3333333,0,0,-1.3333333,0,682.66667)"><g
       id="g1028"><g
         id="g1030"
         clip-path="url(#clipPath1034)"><g
           id="g1036"
           transform="translate(276.5288,7.5)"><path
             d="m 0,0 h -41.058 c -3.313,0 -6,2.687 -6,6 v 138.327 c 0,3.314 2.687,6 6,6 H 0 c 3.313,0 6,-2.686 6,-6 V 6 C 6,2.687 3.313,0 0,0"
             style="fill:#9d9d9d;fill-opacity:1;fill-rule:nonzero;stroke:none"
             id="path1038" /></g><g
           id="g1040"
           transform="translate(276.5288,157.8271)"><path
             d="m 0,0 h -41.058 c -3.313,0 -6,-2.687 -6,-6 V -114.977 H 6 V -6 C 6,-2.687 3.313,0 0,0"
             style="fill:#838383;fill-opacity:1;fill-rule:nonzero;stroke:none"
             id="path1042" /></g><g
           id="g1044"
           transform="translate(309.0576,71.1968)"><path
             d="m 0,0 h -106.115 c -24.419,0 -44.215,19.796 -44.215,44.215 v 344.873 c 0,24.42 19.796,44.215 44.215,44.215 H 0 c 24.419,0 44.214,-19.795 44.214,-44.215 V 44.215 C 44.214,19.796 24.419,0 0,0"
             style="fill:#5a5a5a;fill-opacity:1;fill-rule:nonzero;stroke:none"
             id="path1046" /></g><g
           id="g1048"
           transform="translate(306.8467,419.4746)"><path
             d="m 0,0 c 0,-28.082 -22.765,-50.847 -50.847,-50.847 -28.082,0 -50.846,22.765 -50.846,50.847 0,28.082 22.764,50.847 50.846,50.847 C -22.765,50.847 0,28.082 0,0"
             style="fill:#eb5569;fill-opacity:1;fill-rule:nonzero;stroke:none"
             id="path1050" /></g><g
           id="g1052"
           transform="translate(306.8467,287.0562)"><path
             d="m 0,0 c 0,-28.082 -22.765,-50.847 -50.847,-50.847 -28.082,0 -50.846,22.765 -50.846,50.847 0,28.082 22.764,50.847 50.846,50.847 C -22.765,50.847 0,28.082 0,0"
             style="fill:#fec165;fill-opacity:1;fill-rule:nonzero;stroke:none"
             id="path1054" /></g><g
           id="g1056"
           transform="translate(306.8467,156.2222)"><path
             d="m 0,0 c 0,-28.082 -22.765,-50.847 -50.847,-50.847 -28.082,0 -50.846,22.765 -50.846,50.847 0,28.082 22.764,50.847 50.846,50.847 C -22.765,50.847 0,28.082 0,0"
             style="fill:#0ab79f;fill-opacity:1;fill-rule:nonzero;stroke:none"
             id="path1058" /></g><g
           id="g1060"
           transform="translate(256,470.3213)"><path
             d="m 0,0 c -5.44,0 -10.676,-0.863 -15.59,-2.445 20.452,-6.583 35.256,-25.76 35.256,-48.402 0,-22.642 -14.804,-41.818 -35.256,-48.402 4.914,-1.581 10.15,-2.444 15.59,-2.444 28.082,0 50.847,22.764 50.847,50.846 C 50.847,-22.765 28.082,0 0,0"
             style="fill:#e53950;fill-opacity:1;fill-rule:nonzero;stroke:none"
             id="path1062" /></g><g
           id="g1064"
           transform="translate(256,337.9033)"><path
             d="m 0,0 c -5.44,0 -10.676,-0.863 -15.59,-2.445 20.452,-6.584 35.256,-25.76 35.256,-48.402 0,-22.642 -14.804,-41.818 -35.256,-48.402 4.914,-1.582 10.15,-2.445 15.59,-2.445 28.082,0 50.847,22.765 50.847,50.847 C 50.847,-22.765 28.082,0 0,0"
             style="fill:#fdb541;fill-opacity:1;fill-rule:nonzero;stroke:none"
             id="path1066" /></g><g
           id="g1068"
           transform="translate(256,207.0693)"><path
             d="m 0,0 c -5.44,0 -10.676,-0.863 -15.59,-2.445 20.452,-6.584 35.256,-25.76 35.256,-48.402 0,-22.642 -14.804,-41.818 -35.256,-48.402 4.914,-1.582 10.15,-2.445 15.59,-2.445 28.082,0 50.847,22.765 50.847,50.847 C 50.847,-22.765 28.082,0 0,0"
             style="fill:#019a8d;fill-opacity:1;fill-rule:nonzero;stroke:none"
             id="path1070" /></g><g
           id="g1072"
           transform="translate(306.8467,419.4746)"><path
             d="m 0,0 c 0,-28.082 -22.765,-50.847 -50.847,-50.847 -28.082,0 -50.846,22.765 -50.846,50.847 0,28.082 22.764,50.847 50.846,50.847 C -22.765,50.847 0,28.082 0,0"
             style="fill:#eb5569;fill-opacity:1;fill-rule:nonzero;stroke:none"
             id="path1074" /></g><g
           id="g1076"
           transform="translate(306.8467,287.0562)"><path
             d="m 0,0 c 0,-28.082 -22.765,-50.847 -50.847,-50.847 -28.082,0 -50.846,22.765 -50.846,50.847 0,28.082 22.764,50.847 50.846,50.847 C -22.765,50.847 0,28.082 0,0"
             style="fill:#fec165;fill-opacity:1;fill-rule:nonzero;stroke:none"
             id="path1078" /></g><g
           id="g1080"
           transform="translate(306.8467,156.2222)"><path
             d="m 0,0 c 0,-28.082 -22.765,-50.847 -50.847,-50.847 -28.082,0 -50.846,22.765 -50.846,50.847 0,28.082 22.764,50.847 50.846,50.847 C -22.765,50.847 0,28.082 0,0"
             style="fill:#0ab79f;fill-opacity:1;fill-rule:nonzero;stroke:none"
             id="path1082" /></g><g
           id="g1084"
           transform="translate(256,470.3213)"><path
             d="M 0,0 C -4.921,0 -9.673,-0.713 -14.173,-2.017 7.009,-8.155 22.5,-27.686 22.5,-50.847 c 0,-23.161 -15.491,-42.691 -36.673,-48.829 4.5,-1.304 9.252,-2.017 14.173,-2.017 28.082,0 50.847,22.764 50.847,50.846 C 50.847,-22.765 28.082,0 0,0"
             style="fill:#e53950;fill-opacity:1;fill-rule:nonzero;stroke:none"
             id="path1086" /></g><g
           id="g1088"
           transform="translate(256,337.9033)"><path
             d="M 0,0 C -4.921,0 -9.673,-0.713 -14.173,-2.017 7.009,-8.156 22.5,-27.686 22.5,-50.847 c 0,-23.161 -15.491,-42.691 -36.673,-48.83 4.5,-1.304 9.252,-2.017 14.173,-2.017 28.082,0 50.847,22.765 50.847,50.847 C 50.847,-22.765 28.082,0 0,0"
             style="fill:#fdb541;fill-opacity:1;fill-rule:nonzero;stroke:none"
             id="path1090" /></g><g
           id="g1092"
           transform="translate(256,207.0693)"><path
             d="M 0,0 C -4.921,0 -9.673,-0.713 -14.173,-2.017 7.009,-8.156 22.5,-27.686 22.5,-50.847 c 0,-23.161 -15.491,-42.691 -36.673,-48.83 4.5,-1.304 9.252,-2.017 14.173,-2.017 28.082,0 50.847,22.765 50.847,50.847 C 50.847,-22.765 28.082,0 0,0"
             style="fill:#019a8d;fill-opacity:1;fill-rule:nonzero;stroke:none"
             id="path1094" /></g><g
           id="g1096"
           transform="translate(309.0576,504.5)"><path
             d="m 0,0 h -34.016 c 24.419,0 44.215,-19.795 44.215,-44.214 v -344.874 c 0,-24.419 -19.796,-44.215 -44.215,-44.215 H -39.68 -39.685 0 c 24.419,0 44.214,19.796 44.214,44.215 V -44.214 C 44.214,-19.795 24.419,0 0,0"
             style="fill:#444444;fill-opacity:1;fill-rule:nonzero;stroke:none"
             id="path1098" /></g><g
           id="g1100"
           transform="translate(309.0576,71.1968)"><path
             d="m 0,0 h -106.115 c -24.419,0 -44.215,19.796 -44.215,44.215 v 344.873 c 0,24.42 19.796,44.215 44.215,44.215 H 0 c 24.419,0 44.214,-19.795 44.214,-44.215 V 44.215 C 44.214,19.796 24.419,0 0,0 Z"
             style="fill:none;stroke:#000000;stroke-width:15;stroke-linecap:round;stroke-linejoin:round;stroke-miterlimit:10;stroke-dasharray:200, 35, 355, 0;stroke-dashoffset:0;stroke-opacity:1"
             id="path1102" /></g><path
           d="m 282.529,7.5 h -53.058 v 63.697 h 53.058 z"
           style="fill:none;stroke:#000000;stroke-width:15;stroke-linecap:round;stroke-linejoin:round;stroke-miterlimit:10;stroke-dasharray:none;stroke-opacity:1"
           id="path1104" /><g
           id="g1106"
           transform="translate(306.8467,419.4746)"><path
             d="m 0,0 c 0,-28.082 -22.765,-50.847 -50.847,-50.847 -28.082,0 -50.846,22.765 -50.846,50.847 0,28.082 22.764,50.847 50.846,50.847 C -22.765,50.847 0,28.082 0,0 Z"
             style="fill:none;stroke:#000000;stroke-width:15;stroke-linecap:round;stroke-linejoin:round;stroke-miterlimit:10;stroke-dasharray:none;stroke-opacity:1"
             id="path1108" /></g><g
           id="g1110"
           transform="translate(306.8467,287.0562)"><path
             d="m 0,0 c 0,-28.082 -22.765,-50.847 -50.847,-50.847 -28.082,0 -50.846,22.765 -50.846,50.847 0,28.082 22.764,50.847 50.846,50.847 C -22.765,50.847 0,28.082 0,0 Z"
             style="fill:none;stroke:#000000;stroke-width:15;stroke-linecap:round;stroke-linejoin:round;stroke-miterlimit:10;stroke-dasharray:none;stroke-opacity:1"
             id="path1112" /></g><g
           id="g1114"
           transform="translate(306.8467,156.2222)"><path
             d="m 0,0 c 0,-28.082 -22.765,-50.847 -50.847,-50.847 -28.082,0 -50.846,22.765 -50.846,50.847 0,28.082 22.764,50.847 50.846,50.847 C -22.765,50.847 0,28.082 0,0 Z"
             style="fill:none;stroke:#000000;stroke-width:15;stroke-linecap:round;stroke-linejoin:round;stroke-miterlimit:10;stroke-dasharray:none;stroke-opacity:1"
             id="path1116" /></g></g></g></g></svg>
